<svg xmlns="http://www.w3.org/2000/svg" version="1.1" xmlns:xlink="http://www.w3.org/1999/xlink" xmlns:svgjs="http://svgjs.dev/svgjs" width="1500" height="1500" viewBox="0 0 1500 1500"><rect width="1500" height="1500" fill="#000000"></rect><g transform="matrix(0.6666666666666666,0,0,0.6666666666666666,249.39393939393938,438.5856950067477)"><svg viewBox="0 0 396 247" data-background-color="#ffffff" preserveAspectRatio="xMidYMid meet" height="935" width="1500" xmlns="http://www.w3.org/2000/svg" xmlns:xlink="http://www.w3.org/1999/xlink"><g id="tight-bounds" transform="matrix(1,0,0,1,0.2400000000000091,-0.09999999999999432)"><svg viewBox="0 0 395.52 247.2" height="247.2" width="395.52"><g><svg></svg></g><g><svg viewBox="0 0 395.52 247.2" height="247.2" width="395.52"><g transform="matrix(1,0,0,1,130.18231662971175,47.215199999999996)"><svg viewBox="0 0 135.15536674057648 152.7696" height="152.7696" width="135.15536674057648"><g><svg viewBox="0 0 135.15536674057648 152.7696" height="152.7696" width="135.15536674057648"><g><svg viewBox="0 0 135.15536674057648 152.7696" height="152.7696" width="135.15536674057648"><g><svg viewBox="0 0 135.15536674057648 152.7696" height="152.7696" width="135.15536674057648"><g id="textblocktransform"><svg viewBox="0 0 135.15536674057648 152.7696" height="152.7696" width="135.15536674057648" id="textblock"><g><svg viewBox="0 0 135.15536674057648 152.7696" height="152.7696" width="135.15536674057648"><g transform="matrix(1,0,0,1,0,0)"><svg width="135.15536674057648" viewBox="1.6 -33.83 29.93 33.83" height="152.7696" data-palette-color="#ff0000"><path d="M12.9-33.83L1.6 0 6.88 0 9.85-9.38 23.28-9.38 26.23 0 31.53 0 20.23-33.83 12.9-33.83ZM22.4-12.83L10.75-12.83 16.55-30.78 16.6-30.78 22.4-12.83Z" opacity="1" transform="matrix(1,0,0,1,0,0)" fill="#ffffff" class="wordmark-text-0" data-fill-palette-color="primary" id="text-0"></path></svg></g></svg></g></svg></g></svg></g></svg></g></svg></g></svg></g><g><path d="M191.178 0c30.402 0 58.24 10.976 79.768 29.183l-11.147 0c-19.26-14.022-42.974-22.294-68.621-22.295-25.647 0-49.361 8.272-68.621 22.295l-11.148 0c21.528-18.206 49.366-29.183 79.769-29.183zM191.178 247.2c-30.402 0-58.24-10.976-79.769-29.183h11.148c19.26 14.022 42.974 22.294 68.621 22.295 25.647 0 49.361-8.272 68.621-22.295l11.147 0c-21.528 18.206-49.366 29.183-79.768 29.183z" fill="#ffffff" stroke="transparent" data-fill-palette-color="tertiary"></path></g></svg></g><defs></defs></svg><rect width="395.52" height="247.2" fill="none" stroke="none" visibility="hidden"></rect></g></svg></g></svg>